<svg id="Calque_1" data-name="Calque 1" xmlns="http://www.w3.org/2000/svg" viewBox="0 0 348.87 348.8"><path d="M285.45,550.84a174.4,174.4,0,1,1,.6-348.8c95.91.16,174.12,78.29,173.84,175.33C459.61,472.91,381.43,550.84,285.45,550.84ZM333.9,474.1c.46,4.88.58,10.27,1.58,15.5,1.13,5.95,4.72,8,11.66,7.83,5.2-.15,8.27-2.7,9.09-8.43a67.23,67.23,0,0,0,.8-13.87c-1.45-22.9-3.31-45.78-4.75-68.68-.69-10.84-.83-21.71-1.08-32.57a19.84,19.84,0,0,1,4.52-13.52c2.46-3,4.67-6.17,7.33-8.95,7.46-7.81,11.75-17.13,13.68-27.62,2.43-13.23,2.16-26.18-4.17-38.49C368.7,277.79,364.2,270.8,357,266s-14.44-4.83-21.79-.48a34.17,34.17,0,0,0-10.64,10.43c-9.23,13.51-12.27,28.43-9.85,44.52,1.9,12.66,6.87,23.76,16.2,32.82,2.79,2.71,4.94,6.1,7.18,9.32a10.76,10.76,0,0,1,1.61,4.34,82.22,82.22,0,0,1,.92,9.39c.77,19.2-.74,38.3-2.7,57.37C336.59,447,335.29,460.28,333.9,474.1Zm-97.49.41-.73,0c0-2.72.17-5.44,0-8.14-1-13.34-2.45-26.65-3-40-1.48-37.87-2.59-75.76-3.84-113.64-.52-15.72-1.09-31.45-1.54-47.17a2.71,2.71,0,0,0-2.38-2.95,7.35,7.35,0,0,0-7.78,2.42,39.39,39.39,0,0,0-5.88,8.85c-4.24,9.24-6,19.2-7.44,29.19a381,381,0,0,0-3.65,47.23c-.28,12.79-1.12,25.59.48,38.36.83,6.64,3,12.63,7.81,17.46a26.58,26.58,0,0,1,2.87,3.47,23.77,23.77,0,0,1,4.74,15.91c-1.12,13.39-2.86,26.73-3.82,40.14a130.28,130.28,0,0,0,.28,21.18c.7,7.69,4.42,10.61,11.86,10.65,6.08,0,9.31-2.24,10.45-8.25C235.76,484.37,235.92,479.41,236.41,474.51ZM300.53,300h-.27c0-4.43.06-8.86,0-13.29-.12-6.93-.32-13.87-.53-20.8a3.51,3.51,0,0,0-3.45-3.63,3.63,3.63,0,0,0-3.45,3.45c-.07.71,0,1.43,0,2.15q0,29.5,0,59c0,1.58-.24,3-2.17,3-1.73-.05-2.08-1.41-2.08-2.93q0-14.16,0-28.32,0-16.2,0-32.39c0-2.57-1.6-4.13-4-4s-3.47,1.66-3.47,4.27q0,29.82,0,59.65c0,1.66.2,3.68-2.15,3.66s-2.06-2.09-2.06-3.71q0-29.71,0-59.44c0-2.85-1.39-4.45-3.78-4.44s-3.7,1.52-3.7,4.26q0,25.53,0,51.06c0,3.36.09,6.73-.16,10.08a3.15,3.15,0,0,1-2,2.16c-1.28.28-2-.82-2.1-2.14,0-.57,0-1.14,0-1.72q0-17.81,0-35.61c0-7.94,0-15.88,0-23.82,0-1.8-.46-3.25-2.25-4-2.64-1.06-4.9.68-5,3.95q-.93,31.64-1.81,63.27c-.29,11,4,17.6,14.07,21.91a3.08,3.08,0,0,1,1.56,2.12c.53,5.33,1.13,10.67,1.25,16,.53,25.74-2.66,51.23-5.2,76.77-1.08,10.87-1.57,21.82-1.85,32.74-.1,3.91.91,7.93,1.95,11.76,1,3.54,3.85,5.41,7.47,5.9a26.89,26.89,0,0,0,4.91.23c5-.23,7.9-2.41,9.16-7.2a31.58,31.58,0,0,0,1.3-8.65c-.22-10.5-.51-21-1.21-31.49-1.51-22.62-3.41-45.2-4.91-67.82-.61-9.19-1-18.43.56-27.61a3.41,3.41,0,0,1,2.46-3c9.15-3.55,14-11,13.82-20.78C301.07,320.48,300.79,310.26,300.53,300Z" transform="translate(-111.02 -202.04)"/></svg>